<svg width="1200" height="760" viewBox="0 0 1200 760" fill="none" xmlns="http://www.w3.org/2000/svg">
  <defs>
    <linearGradient id="bg" x1="0" y1="0" x2="1200" y2="760" gradientUnits="userSpaceOnUse">
      <stop stop-color="#F6FAFF"/>
      <stop offset="1" stop-color="#EAF2FF"/>
    </linearGradient>
    <linearGradient id="card" x1="0" y1="0" x2="1" y2="1">
      <stop stop-color="#FFFFFF"/>
      <stop offset="1" stop-color="#F7FBFF"/>
    </linearGradient>
    <filter id="shadow" x="-40" y="-40" width="1280" height="840" filterUnits="userSpaceOnUse" color-interpolation-filters="sRGB">
      <feOffset dy="12"/>
      <feGaussianBlur stdDeviation="18"/>
      <feColorMatrix type="matrix" values="0 0 0 0 0.0588 0 0 0 0 0.1294 0 0 0 0 0.2471 0 0 0 0.12 0"/>
      <feBlend mode="normal" in2="BackgroundImageFix" result="effect1_dropShadow"/>
      <feBlend mode="normal" in="SourceGraphic" in2="effect1_dropShadow" result="shape"/>
    </filter>
  </defs>

  <rect width="1200" height="760" rx="32" fill="url(#bg)"/>
  <circle cx="1040" cy="102" r="170" fill="#DDEAFF"/>
  <circle cx="174" cy="680" r="190" fill="#E6F8F6"/>

  <g filter="url(#shadow)">
    <rect x="88" y="64" width="1024" height="632" rx="24" fill="url(#card)" stroke="#D7E2F4"/>
  </g>

  <rect x="128" y="102" width="944" height="54" rx="12" fill="#F1F6FF"/>
  <rect x="154" y="121" width="162" height="16" rx="8" fill="#0F3D91"/>
  <rect x="924" y="118" width="118" height="22" rx="11" fill="#0F3D91"/>
  <rect x="936" y="124" width="94" height="10" rx="5" fill="#EAF2FF"/>

  <rect x="128" y="186" width="306" height="478" rx="16" fill="#FFFFFF" stroke="#E1EAF8"/>
  <rect x="148" y="214" width="192" height="12" rx="6" fill="#2D4E86"/>
  <rect x="148" y="236" width="132" height="10" rx="5" fill="#7891BB"/>

  <rect x="148" y="272" width="266" height="88" rx="12" fill="#F8FBFF" stroke="#E5EDF9"/>
  <rect x="164" y="292" width="148" height="10" rx="5" fill="#2D4E86"/>
  <rect x="164" y="312" width="106" height="8" rx="4" fill="#6A86B3"/>
  <rect x="164" y="334" width="86" height="18" rx="9" fill="#ECFDF5"/>

  <rect x="148" y="380" width="266" height="88" rx="12" fill="#F8FBFF" stroke="#E5EDF9"/>
  <rect x="164" y="400" width="156" height="10" rx="5" fill="#2D4E86"/>
  <rect x="164" y="420" width="112" height="8" rx="4" fill="#6A86B3"/>
  <rect x="164" y="442" width="90" height="18" rx="9" fill="#FEF9C3"/>

  <rect x="148" y="488" width="266" height="88" rx="12" fill="#F8FBFF" stroke="#E5EDF9"/>
  <rect x="164" y="508" width="132" height="10" rx="5" fill="#2D4E86"/>
  <rect x="164" y="528" width="108" height="8" rx="4" fill="#6A86B3"/>
  <rect x="164" y="550" width="94" height="18" rx="9" fill="#FFF1F2"/>

  <rect x="458" y="186" width="614" height="300" rx="16" fill="#FFFFFF" stroke="#E1EAF8"/>
  <rect x="484" y="214" width="202" height="12" rx="6" fill="#2D4E86"/>
  <rect x="484" y="236" width="134" height="10" rx="5" fill="#7891BB"/>

  <rect x="484" y="272" width="558" height="24" rx="12" fill="#EEF4FF"/>
  <rect x="484" y="312" width="558" height="24" rx="12" fill="#EEF4FF"/>
  <rect x="484" y="352" width="558" height="24" rx="12" fill="#EEF4FF"/>
  <rect x="484" y="392" width="558" height="24" rx="12" fill="#EEF4FF"/>
  <rect x="484" y="432" width="558" height="24" rx="12" fill="#EEF4FF"/>

  <rect x="484" y="272" width="214" height="24" rx="12" fill="#0F3D91"/>
  <rect x="484" y="312" width="308" height="24" rx="12" fill="#2E67BF"/>
  <rect x="484" y="352" width="260" height="24" rx="12" fill="#5B8CDB"/>
  <rect x="484" y="392" width="336" height="24" rx="12" fill="#85AFE7"/>
  <rect x="484" y="432" width="178" height="24" rx="12" fill="#A9C8F0"/>

  <rect x="458" y="510" width="296" height="154" rx="16" fill="#FFFFFF" stroke="#E1EAF8"/>
  <rect x="482" y="536" width="132" height="10" rx="5" fill="#2D4E86"/>
  <rect x="482" y="556" width="98" height="8" rx="4" fill="#7891BB"/>
  <circle cx="548" cy="610" r="30" fill="#ECFDF5"/>
  <circle cx="610" cy="610" r="30" fill="#FEF9C3"/>
  <circle cx="672" cy="610" r="30" fill="#FFF1F2"/>

  <rect x="776" y="510" width="296" height="154" rx="16" fill="#FFFFFF" stroke="#E1EAF8"/>
  <rect x="800" y="536" width="138" height="10" rx="5" fill="#2D4E86"/>
  <rect x="800" y="556" width="104" height="8" rx="4" fill="#7891BB"/>
  <rect x="800" y="588" width="246" height="16" rx="8" fill="#EEF4FF"/>
  <rect x="800" y="614" width="196" height="16" rx="8" fill="#EEF4FF"/>
  <rect x="800" y="640" width="164" height="16" rx="8" fill="#EEF4FF"/>
</svg>
