<svg width="860" height="220" viewBox="0 0 860 220" fill="none" xmlns="http://www.w3.org/2000/svg">
  <defs>
    <linearGradient id="docflowLogoBg" x1="24" y1="20" x2="194" y2="198" gradientUnits="userSpaceOnUse">
      <stop stop-color="#0F3D91"/>
      <stop offset="1" stop-color="#0F766E"/>
    </linearGradient>
    <linearGradient id="docflowLogoLine" x1="76" y1="96" x2="164" y2="152" gradientUnits="userSpaceOnUse">
      <stop stop-color="#2E67BF"/>
      <stop offset="1" stop-color="#0F766E"/>
    </linearGradient>
  </defs>

  <rect x="20" y="20" width="176" height="176" rx="44" fill="url(#docflowLogoBg)"/>
  <rect x="46" y="42" width="124" height="132" rx="22" fill="white" fill-opacity="0.96"/>
  <path d="M126 42V73C126 81.2843 132.716 88 141 88H170V152C170 164.15 160.15 174 148 174H68C55.8497 174 46 164.15 46 152V64C46 51.8497 55.8497 42 68 42H126Z" fill="white"/>
  <path d="M126 42L170 88H144C134.059 88 126 79.9411 126 70V42Z" fill="#DDEBFF"/>
  <rect x="70" y="99" width="64" height="9" rx="4.5" fill="#C7DBFA"/>
  <rect x="70" y="118" width="44" height="8" rx="4" fill="#D4E4FC"/>
  <path d="M72 142C77.8708 134.24 84.309 130.36 91.3146 130.36C101.823 130.36 108.328 141.92 118.736 141.92C124.386 141.92 130.276 138.352 136.407 131.216" stroke="url(#docflowLogoLine)" stroke-width="8.5" stroke-linecap="round"/>
  <path d="M135 144L147 131.5L135 119" stroke="#0F5A8D" stroke-width="8" stroke-linecap="round" stroke-linejoin="round"/>

  <text x="232" y="110" fill="#0F172A" font-family="Plus Jakarta Sans, Pretendard, Segoe UI, sans-serif" font-size="78" font-weight="800" letter-spacing="-1.5">DocFlow</text>
  <text x="234" y="146" fill="#4B5E7A" font-family="Plus Jakarta Sans, Pretendard, Segoe UI, sans-serif" font-size="24" font-weight="700" letter-spacing="3">B2A DOCUMENT OPERATIONS</text>
</svg>
