<svg width="16" height="16" viewBox="0 0 16 16" fill="none" xmlns="http://www.w3.org/2000/svg">
<path d="M2.74905 5.97665L0.143654 5.24241C0.0209203 5.20797 -0.0337923 5.27245 0.0216597 5.38896L4.10884 13.7555C4.17641 13.8766 4.30213 13.9547 4.44155 13.9622C4.30678 13.959 4.19123 13.8659 4.1606 13.7357L2.74905 5.97665Z" fill="#F46060"/>
<path d="M4.39159 13.9565C4.28525 13.9343 4.21076 13.8391 4.21562 13.7315L4.72751 4.00213L2.18386 3.02455C2.06482 2.97839 1.98793 3.04214 2.0138 3.16671L4.15795 13.7359C4.1888 13.8642 4.30225 13.9562 4.43521 13.9609C4.42056 13.9608 4.40595 13.9593 4.39159 13.9565Z" fill="#FFA52E"/>
<path d="M4.94925 1.46816C4.90507 1.43769 4.84707 1.4354 4.80058 1.46228C4.7541 1.48917 4.72758 1.54035 4.73262 1.59346L4.21507 13.7315C4.21021 13.8391 4.2847 13.9343 4.39104 13.9565C4.34279 13.9475 4.30105 13.9178 4.27706 13.8753C4.25308 13.8329 4.24933 13.7821 4.26682 13.7366L7.43224 2.70103L4.94925 1.46816Z" fill="#87CC25"/>
<path opacity="0.4" d="M4.21634 13.7313L4.52465 6.47193L2.57422 5.92529L4.16089 13.7357C4.19173 13.864 4.30519 13.956 4.43815 13.9607C4.42276 13.9607 4.4074 13.9592 4.3923 13.9563C4.28597 13.9341 4.21148 13.8389 4.21634 13.7313Z" fill="#F98526"/>
<path opacity="0.4" d="M6.75575 4.78308L4.63157 3.96606L4.21604 13.7315C4.21119 13.839 4.28568 13.9343 4.39201 13.9564C4.34377 13.9474 4.30202 13.9177 4.27804 13.8753C4.25405 13.8328 4.2503 13.782 4.2678 13.7366L6.75575 4.78308Z" fill="#74B502"/>
<path d="M15.8631 5.07468L8.13383 0.662048C8.0866 0.630617 8.02669 0.624552 7.97403 0.645869C7.92137 0.667186 7.88287 0.713088 7.87135 0.768297L4.26771 13.7424C4.25022 13.7879 4.25397 13.8387 4.27795 13.8811C4.30193 13.9236 4.34368 13.9533 4.39193 13.9622C4.40702 13.9652 4.42238 13.9667 4.43777 13.9666L12.5441 13.9571C12.6812 13.9501 12.8025 13.8666 12.8569 13.7417L15.9836 5.41028C16.0285 5.28425 15.9782 5.14428 15.8631 5.07468Z" fill="#1D7FF9"/>
<path fill-rule="evenodd" clip-rule="evenodd" d="M14.7899 6.08145L8.72716 3.16217C8.69759 3.14824 8.66506 3.16803 8.65323 3.20686L8.51718 3.69781C8.505 3.73272 8.51881 3.77135 8.55046 3.79087L14.608 6.54455C14.625 6.55188 14.648 6.53576 14.659 6.50718L14.7966 6.14813C14.8121 6.12175 14.8069 6.08951 14.7899 6.08145ZM14.2849 7.40041L8.23179 4.94935C8.21585 4.94393 8.19829 4.94589 8.18396 4.9547C8.16963 4.9635 8.16005 4.97822 8.15786 4.99478L8.03069 5.46228C8.02021 5.49523 8.03439 5.53095 8.0647 5.54801L14.1171 7.84592C14.1348 7.85251 14.157 7.83566 14.1681 7.80855L14.2997 7.46342C14.3079 7.43558 14.3019 7.40773 14.2849 7.40114V7.40041ZM13.7999 8.6688L7.7586 6.64567C7.74308 6.64223 7.72681 6.6452 7.71355 6.65392C7.7003 6.66263 7.6912 6.67632 7.68836 6.69183L7.56489 7.13149C7.55405 7.163 7.56951 7.19748 7.60038 7.21062L13.6373 9.0938C13.6543 9.09966 13.6764 9.08281 13.6868 9.05643L13.814 8.72449C13.8214 8.70104 13.8169 8.67466 13.7999 8.66953V8.6688ZM13.3326 9.88883L7.30611 8.25919C7.27431 8.25336 7.24369 8.27393 7.23735 8.30536L7.11979 8.72669C7.11439 8.74106 7.11512 8.75698 7.12182 8.7708C7.12851 8.78463 7.14059 8.79515 7.15528 8.79996L13.1752 10.2984C13.1929 10.3036 13.2143 10.286 13.2239 10.2611L13.3467 9.94159C13.3563 9.91888 13.3504 9.89396 13.3326 9.88957V9.88883Z" fill="white"/>
</svg>
